<svg xmlns="http://www.w3.org/2000/svg" viewBox="0 8.649999618530273 41.849998474121094 46.80000686645508" data-asc="0.789" width="41.849998474121094" height="46.80000686645508"><defs/><g fill="#1c4d82"><g transform="translate(0, 0)"><path d="M3.90 21.40Q3.90 18.35 6.55 16.30Q9.20 14.25 13.75 13.25Q14.05 11.15 15.45 9.90Q16.85 8.65 17.98 8.65Q19.10 8.65 19.78 9.28Q20.45 9.90 20.45 10.95Q20.45 13.40 17 14.35Q16.25 28.35 16.25 28.70Q17.75 27.85 19.78 27.08Q21.80 26.30 22.65 26.30Q23.50 26.30 23.50 26.65Q23.50 27.30 22.90 27.50Q19.65 28.55 16.20 30.65Q15.80 41.25 15.70 43.35Q15.35 49.25 13.10 52.35Q10.85 55.45 6.85 55.45Q3.70 55.45 1.85 52.88Q0 50.30 0 47.20Q0 42.80 3.10 38.88Q6.20 34.95 12.55 30.80L13.60 15Q7.25 16.10 7.25 20.45Q7.25 21.70 6.73 22.40Q6.20 23.10 5.40 23.10Q3.90 23.10 3.90 21.40M7.55 53.65Q10.95 53.65 11.55 46.10Q11.85 42.30 12.08 38.55Q12.30 34.80 12.40 33.20Q10.35 34.65 9.10 35.68Q7.85 36.70 6.40 38.25Q3.65 41.35 3.65 45.75Q3.65 50 5.10 52.25Q6.05 53.65 7.55 53.65M18.40 10.35Q17.30 10.35 17.10 12.60Q18.90 12.05 18.90 11.15Q18.90 10.35 18.40 10.35ZM37.40 16.50L37.65 15.20Q37.45 12.50 34 12.50Q32 12.50 30.52 13.93Q29.05 15.35 29.05 16.93Q29.05 18.50 30.38 19.68Q31.70 20.85 33.58 21.78Q35.45 22.70 37.33 23.78Q39.20 24.85 40.53 26.55Q41.85 28.25 41.85 30.40Q41.85 34.85 38.35 37.40Q34.85 39.95 30.80 39.95Q26.75 39.95 24.05 38.48Q21.35 37 21.35 34Q21.35 32.40 22.45 31.10Q23.55 29.80 25.60 29.80Q26.40 29.80 27.05 30.25Q27.70 30.70 27.85 31.45Q27.85 32.20 26.95 32.20Q25.25 32.20 25.25 33.65Q25.30 35.30 26.82 36.65Q28.35 38 31.13 38Q33.90 38 35.88 36.10Q37.85 34.20 37.85 31.50Q37.85 29.70 36.50 28.25Q35.15 26.80 33.25 25.78Q31.35 24.75 29.43 23.70Q27.50 22.65 26.15 21.15Q24.80 19.65 24.80 17.75Q24.80 14.40 27.68 12.40Q30.55 10.40 34.20 10.40Q36.65 10.40 38.65 11.40Q40.65 12.40 40.70 14.45Q40.70 15.65 40.10 16.45Q39.50 17.25 38.48 17.25Q37.45 17.25 37.40 16.50Z"/></g></g></svg>